<?xml version="1.0" encoding="UTF-8"?>
<svg width="95px" height="98px" viewBox="0 0 95 98" version="1.1" xmlns="http://www.w3.org/2000/svg" xmlns:xlink="http://www.w3.org/1999/xlink">
    <!-- Generator: Sketch 53 (72520) - https://sketchapp.com -->
    <title>noun_Ninja_51690</title>
    <desc>Created with Sketch.</desc>
    <g id="Page-1" stroke="none" stroke-width="1" fill="none" fill-rule="evenodd">
        <g id="noun_Ninja_51690">
            <path d="M43.434,60.727 C42.746,60.727 42.072,60.389 41.67,59.769 C41.039,58.794 41.316,57.495 42.29,56.865 L54.198,49.148 C55.17,48.517 56.473,48.793 57.103,49.769 C57.734,50.742 57.457,52.043 56.483,52.674 L44.574,60.39 C44.222,60.617 43.825,60.727 43.434,60.727 Z" id="Path" fill="#000000" fill-rule="nonzero"></path>
            <path d="M26.091,60.727 C25.612,60.727 25.129,60.564 24.735,60.229 L15.263,52.212 C14.377,51.464 14.267,50.138 15.017,49.253 C15.767,48.368 17.092,48.258 17.976,49.007 L27.448,57.024 C28.334,57.773 28.444,59.098 27.694,59.984 C27.28,60.474 26.688,60.727 26.091,60.727 Z" id="Path" fill="#000000" fill-rule="nonzero"></path>
            <g id="Group">
                <path d="M56.685,45.331 L16.929,45.331 C11.463,45.331 7.032,49.762 7.032,55.228 C7.032,60.694 11.463,65.125 16.929,65.125 L56.685,65.125 C62.151,65.125 66.581,60.693 66.581,55.228 C66.581,49.761 62.15,45.331 56.685,45.331 Z" id="Path"></path>
                <path d="M92.657,1.784 C90.144,-0.183 86.513,0.26 84.55,2.773 L75.228,14.685 L72.557,12.471 C71.889,11.916 70.894,12.009 70.34,12.678 C69.784,13.348 69.877,14.341 70.547,14.896 L73.285,17.167 L66.852,25.388 C59.902,19.821 51.089,16.484 41.493,16.484 C19.069,16.484 0.89,34.663 0.89,57.087 C0.89,79.511 19.069,97.69 41.493,97.69 C63.917,97.69 82.097,79.511 82.097,57.087 C82.097,48.476 79.408,40.498 74.836,33.928 L82.181,24.543 L84.899,26.797 C85.192,27.041 85.548,27.16 85.903,27.16 C86.355,27.16 86.806,26.966 87.117,26.59 C87.673,25.921 87.578,24.928 86.909,24.372 L84.123,22.062 L93.646,9.893 C95.611,7.38 95.17,3.75 92.657,1.784 Z M56.685,65.125 L16.929,65.125 C11.463,65.125 7.032,60.693 7.032,55.228 C7.032,49.762 11.463,45.331 16.929,45.331 L56.685,45.331 C62.151,45.331 66.581,49.762 66.581,55.228 C66.581,60.693 62.15,65.125 56.685,65.125 Z" id="Shape" fill="#000000" fill-rule="nonzero"></path>
            </g>
        </g>
    </g>
</svg>
